HIERARCHY
ROOT Hips
{
	OFFSET 0.000000 0.000000 0.000000 
	CHANNELS 6 Xposition Yposition Zposition Zrotation Yrotation Xrotation
	JOINT LeftUpLeg
	{
		OFFSET 1.363060 -1.794630 0.839290 
		CHANNELS 3 Zrotation Yrotation Xrotation
		JOINT LeftLeg
		{
			OFFSET 2.448110 -6.726130 0.000000 
			CHANNELS 3 Zrotation Yrotation Xrotation
			JOINT LeftFoot
			{
				OFFSET 2.562200 -7.039590 0.000000 
				CHANNELS 3 Zrotation Yrotation Xrotation
				JOINT LeftToeBase
				{
					OFFSET 0.157640 -0.433110 2.322550 
					CHANNELS 3 Zrotation Yrotation Xrotation
					End Site
					{
						OFFSET 0.000000 0.000000 0.000000 
					}
				}
			}
		}
	}
	JOINT RightUpLeg
	{
		OFFSET -1.305520 -1.794630 0.839290 
		CHANNELS 3 Zrotation Yrotation Xrotation
		JOINT RightLeg
		{
			OFFSET -2.542530 -6.985550 0.000000 
			CHANNELS 3 Zrotation Yrotation Xrotation
			JOINT RightFoot
			{
				OFFSET -2.568260 -7.056230 0.000000 
				CHANNELS 3 Zrotation Yrotation Xrotation
				JOINT RightToeBase
				{
					OFFSET -0.164730 -0.452590 2.363150 
					CHANNELS 3 Zrotation Yrotation Xrotation
					End Site
					{
						OFFSET 0.000000 0.000000 0.000000 
					}
				}
			}
		}
	}
	JOINT Spine
	{
		OFFSET 0.028270 2.035590 -0.193380 
		CHANNELS 3 Zrotation Yrotation Xrotation
		JOINT Spine1
		{
			OFFSET 0.056720 2.048850 -0.042750 
			CHANNELS 3 Zrotation Yrotation Xrotation
			JOINT Neck1
			{
				OFFSET -0.054170 1.746240 0.172020 
				CHANNELS 3 Zrotation Yrotation Xrotation
				JOINT Head
				{
					OFFSET 0.104070 1.761360 -0.123970 
					CHANNELS 3 Zrotation Yrotation Xrotation
					End Site
					{
						OFFSET 0.000000 0.000000 0.000000 
					}
				}
			}
			JOINT LeftArm
			{
				OFFSET 3.362410 1.200890 -0.311210 
				CHANNELS 3 Zrotation Yrotation Xrotation
				JOINT LeftForeArm
				{
					OFFSET 4.983000 -0.000000 -0.000000 
					CHANNELS 3 Zrotation Yrotation Xrotation
					JOINT LeftHand
					{
						OFFSET 3.483560 -0.000000 -0.000000 
						CHANNELS 3 Zrotation Yrotation Xrotation
						JOINT LeftHandIndex1
						{
							OFFSET 0.715260 -0.000000 -0.000000 
							CHANNELS 3 Zrotation Yrotation Xrotation
							End Site
							{
								OFFSET 0.000000 0.000000 0.000000 
							}
						}
					}
				}
			}
			JOINT RightArm
			{
				OFFSET -3.136600 1.374050 -0.404650 
				CHANNELS 3 Zrotation Yrotation Xrotation
				JOINT RightForeArm
				{
					OFFSET -5.241900 -0.000000 -0.000000 
					CHANNELS 3 Zrotation Yrotation Xrotation
					JOINT RightHand
					{
						OFFSET -3.444170 -0.000000 -0.000000 
						CHANNELS 3 Zrotation Yrotation Xrotation
						JOINT RightHandIndex1
						{
							OFFSET -0.622530 -0.000000 -0.000000 
							CHANNELS 3 Zrotation Yrotation Xrotation
							End Site
							{
								OFFSET 0.000000 0.000000 0.000000 
							}
						}
					}
				}
			}
		}
	}
}
MOTION
Frames: 13
Frame Time: 0.041667
14.636085 18.337111 -10.969578 -153.490128 -86.078021 166.623488 -5.368062 -3.308633 -19.253229 -0.895243 7.016440 19.942801 -0.786292 5.602846 0.264627 0.184400 -2.765400 -7.626300 0.896380 12.892078 -17.693150 1.071969 -6.520324 20.099930 -1.632840 5.420601 17.139412 -3.212600 -11.031500 32.386100 1.358647 1.508012 -4.108532 0.205936 0.713895 1.132792 1.980386 0.206055 27.282306 0.836600 0.305700 10.189200 -80.065132 3.803785 29.863277 16.886574 -21.815887 -3.094176 0.786586 -0.630914 -10.768541 -7.125000 0.000000 0.000000 77.203875 -6.390929 8.765847 -16.761279 23.413525 -4.224190 0.108350 -0.395783 22.789460 7.125000 0.000000 0.000000 
14.632603 18.336713 -10.933069 -151.148081 -85.893587 164.299147 -5.296420 -3.279046 -19.286551 -0.876610 7.038455 20.029382 -0.719746 5.444471 0.181772 0.170900 -2.663000 -7.341900 1.046506 12.576630 -17.909697 1.053335 -6.576247 20.240840 -1.609889 5.297831 17.314299 -3.086600 -10.833900 31.721700 1.419172 1.390198 -4.162373 0.093037 0.648106 1.159441 2.005359 0.211506 27.183175 0.836300 0.312400 10.162100 -80.188645 3.605689 30.641174 16.807801 -21.694507 -3.072816 0.783893 -0.634663 -10.991809 -7.125000 0.000000 0.000000 77.030261 -6.367175 8.637184 -16.800087 23.482678 -4.246789 0.103764 -0.384947 22.806238 7.125000 0.000000 0.000000 
14.629221 18.339399 -10.897157 -149.933133 -85.686620 163.061460 -5.228961 -3.384050 -19.286024 -0.844896 7.092231 20.213180 -0.654223 5.279619 -0.088238 0.144600 -2.450600 -6.752700 1.144763 12.359682 -18.059995 1.038759 -6.617465 20.344438 -1.591586 5.184524 17.481741 -2.987300 -10.674500 31.189700 1.480501 1.299856 -4.164886 0.011766 0.597613 1.169092 2.090662 0.198819 27.104609 0.855400 0.315900 10.149200 -80.328891 3.362282 31.411844 16.744615 -21.596750 -3.057207 0.781387 -0.638999 -11.090513 -7.125000 0.000000 0.000000 76.845723 -6.345000 8.607253 -16.862461 23.584992 -4.278875 0.109074 -0.364953 22.579280 7.125000 0.000000 0.000000 
14.628126 18.343179 -10.862538 -149.347220 -85.476406 162.444001 -5.175820 -3.517584 -19.276939 -0.814717 7.143928 20.390201 -0.628974 5.209577 -0.396667 0.126400 -2.291900 -6.313000 1.218474 12.203590 -18.202059 1.016333 -6.668923 20.482657 -1.569132 5.063837 17.611903 -2.883000 -10.503200 30.622300 1.524058 1.219966 -4.165312 -0.050144 0.552518 1.138285 2.198816 0.179938 27.051460 0.880600 0.319900 10.146500 -80.459699 3.106109 32.166936 16.696292 -21.524100 -3.048773 0.780446 -0.643567 -11.083289 -7.125000 0.000000 0.000000 76.674842 -6.329612 8.629028 -16.937229 23.704208 -4.315286 0.120341 -0.343745 22.222831 7.125000 0.000000 0.000000 
14.628524 18.346462 -10.828715 -148.994295 -85.267230 162.061191 -5.138814 -3.637683 -19.292139 -0.779780 7.203183 20.592494 -0.613825 5.162853 -0.712232 0.114700 -2.183100 -6.011900 1.285362 12.076650 -18.355880 0.985663 -6.732535 20.660296 -1.541996 4.937003 17.712490 -2.769200 -10.311700 29.992100 1.558587 1.141962 -4.172068 -0.101046 0.508423 1.091723 2.299808 0.163436 27.003623 0.903600 0.324700 10.146100 -80.576739 2.841197 32.920159 16.656801 -21.466619 -3.045124 0.780535 -0.648037 -11.038255 -7.125000 0.000000 0.000000 76.510781 -6.317369 8.674903 -17.019814 23.834232 -4.355470 0.133382 -0.322186 21.811022 7.125000 0.000000 0.000000 
14.631310 18.348750 -10.796384 -148.896173 -85.059803 161.942399 -5.121714 -3.730237 -19.333822 -0.744796 7.260184 20.790966 -0.618923 5.164559 -1.009611 0.109700 -2.135800 -5.881000 1.348169 11.981697 -18.540965 0.938764 -6.821641 20.919291 -1.508427 4.813642 17.774411 -2.646200 -10.099000 29.297900 1.580917 1.067039 -4.187373 -0.135715 0.465633 1.026459 2.387020 0.151487 26.954584 0.922300 0.330800 10.146500 -80.674355 2.559873 33.663034 16.628156 -21.427481 -3.047455 0.782063 -0.652366 -10.933906 -7.125000 0.000000 0.000000 76.358535 -6.311338 8.754770 -17.115582 23.982378 -4.401746 0.149092 -0.299681 21.322437 7.125000 0.000000 0.000000 
14.635488 18.349248 -10.765446 -148.895086 -84.851693 161.934534 -5.120565 -3.774556 -19.406634 -0.711413 7.310501 20.973225 -0.630832 5.183426 -1.261992 0.108900 -2.127500 -5.858200 1.419129 11.901786 -18.770835 0.873260 -6.940823 21.273260 -1.467931 4.697527 17.801751 -2.525700 -9.884600 28.603700 1.596662 0.993888 -4.209401 -0.158208 0.423389 0.962249 2.447066 0.147965 26.882287 0.933100 0.338300 10.140800 -80.749082 2.259887 34.404173 16.609421 -21.404675 -3.055331 0.784722 -0.656342 -10.808210 -7.125000 0.000000 0.000000 76.216988 -6.310422 8.856001 -17.225926 24.150183 -4.455740 0.165715 -0.275341 20.797144 7.125000 0.000000 0.000000 
14.639766 18.348153 -10.735702 -148.914310 -84.635484 161.960395 -5.126073 -3.774496 -19.499927 -0.680223 7.354009 21.137464 -0.632155 5.179593 -1.474227 0.107400 -2.113200 -5.818600 1.506470 11.826715 -19.044400 0.788896 -7.090164 21.721981 -1.421571 4.597470 17.797307 -2.429500 -9.708600 28.038200 1.611473 0.925372 -4.227223 -0.174249 0.383291 0.918725 2.482751 0.152009 26.769210 0.937300 0.346200 10.123800 -80.800627 1.941866 35.154604 16.601904 -21.399547 -3.069292 0.787999 -0.659781 -10.698506 -7.125000 0.000000 0.000000 76.084703 -6.312425 8.966718 -17.352118 24.338581 -4.518470 0.181830 -0.247639 20.272118 7.125000 0.000000 0.000000 
14.642750 18.346064 -10.706953 -148.963238 -84.402945 162.018471 -5.131063 -3.745868 -19.594695 -0.651469 7.391364 21.284419 -0.611657 5.126698 -1.669012 0.101500 -2.054000 -5.654800 1.612602 11.752063 -19.351103 0.687234 -7.265977 22.254825 -1.371532 4.523226 17.757225 -2.375500 -9.608000 27.716400 1.627470 0.866443 -4.228617 -0.188572 0.347804 0.905638 2.508808 0.159255 26.612006 0.939300 0.353700 10.095100 -80.831004 1.611329 35.922600 16.609084 -21.417546 -3.090797 0.791486 -0.662612 -10.631845 -7.125000 0.000000 0.000000 75.961731 -6.315557 9.079714 -17.494993 24.548530 -4.591191 0.196113 -0.215556 19.773698 7.125000 0.000000 0.000000 
14.643844 18.343478 -10.679098 -149.124171 -84.150484 162.182094 -5.136164 -3.703731 -19.674836 -0.624930 7.424464 21.418570 -0.568405 5.022913 -1.872541 0.090700 -1.942000 -5.345300 1.733238 11.677811 -19.678807 0.570361 -7.463353 22.856439 -1.319926 4.482946 17.671384 -2.367100 -9.592200 27.665800 1.640336 0.820398 -4.205084 -0.201713 0.318667 0.919699 2.540736 0.165286 26.424949 0.943600 0.360300 10.059900 -80.842211 1.275439 36.705667 16.635938 -21.466638 -3.121627 0.795090 -0.664843 -10.616805 -7.125000 0.000000 0.000000 75.847992 -6.318626 9.195819 -17.654268 24.779540 -4.674556 0.207434 -0.179355 19.308127 7.125000 0.000000 0.000000 
14.643247 18.340991 -10.651941 -149.477959 -83.882403 162.525958 -5.149999 -3.652431 -19.736018 -0.600426 7.454632 21.543778 -0.512989 4.892719 -2.097127 0.078600 -1.808500 -4.976800 1.860222 11.604589 -20.020666 0.440117 -7.677364 23.512379 -1.268925 4.483624 17.526692 -2.392600 -9.640000 27.818600 1.643137 0.786359 -4.157112 -0.210384 0.295414 0.947952 2.585041 0.169404 26.232507 0.952200 0.366800 10.025900 -80.835512 0.940187 37.486664 16.686561 -21.553089 -3.163339 0.799034 -0.666534 -10.644639 -7.125000 0.000000 0.000000 75.743846 -6.320654 9.322632 -17.827667 25.029389 -4.768200 0.215197 -0.140749 18.866064 7.125000 0.000000 0.000000 
14.641755 18.338504 -10.625777 -150.031332 -83.609158 163.056171 -5.182307 -3.585313 -19.785598 -0.577581 7.482650 21.662299 -0.460584 4.770952 -2.336036 0.069900 -1.705200 -4.691700 1.987047 11.532222 -20.375693 0.298095 -7.904083 24.210806 -1.220050 4.530654 17.314108 -2.435100 -9.718900 28.071100 1.630467 0.758573 -4.091633 -0.210460 0.275125 0.976493 2.636688 0.175240 26.056948 0.963400 0.375400 9.999700 -80.811133 0.608374 38.238491 16.761874 -21.677924 -3.216134 0.803612 -0.667718 -10.699247 -7.125000 0.000000 0.000000 75.648859 -6.321827 9.468443 -18.010835 25.292170 -4.870353 0.219635 -0.102619 18.436579 7.125000 0.000000 0.000000 
14.640263 18.335917 -10.600410 -150.702695 -83.340984 163.694668 -5.235210 -3.494850 -19.833947 -0.555915 7.508772 21.775290 -0.422844 4.684397 -2.574608 0.067100 -1.671400 -4.598300 2.112749 11.460475 -20.745040 0.146076 -8.139451 24.940281 -1.174022 4.624184 17.032341 -2.481600 -9.804300 28.345400 1.602026 0.730567 -4.016444 -0.201865 0.254408 0.997541 2.684647 0.188697 25.905978 0.974400 0.388100 9.982800 -80.768807 0.281966 38.935732 16.860191 -21.837758 -3.278920 0.809015 -0.668370 -10.767542 -7.125000 0.000000 0.000000 75.563292 -6.321832 9.635740 -18.197867 25.559932 -4.977455 0.221894 -0.068165 18.017134 7.125000 0.000000 0.000000 
